<?xml version="1.0" encoding="utf-8"?>
<!-- Generator: Adobe Illustrator 25.0.0, SVG Export Plug-In . SVG Version: 6.00 Build 0)  -->
<svg version="1.1" id="Слой_1" xmlns="http://www.w3.org/2000/svg" xmlns:xlink="http://www.w3.org/1999/xlink" x="0px" y="0px"
	 viewBox="0 0 40 40" style="enable-background:new 0 0 40 40;" xml:space="preserve">
<style type="text/css">
	.st0{fill:#FFFFFF;stroke:#FFFFFF;stroke-width:0.75;stroke-linecap:round;stroke-miterlimit:10;}
	.st1{clip-path:url(#SVGID_2_);}
	.st2{fill:none;stroke:#FFFFFF;stroke-width:2;stroke-linecap:round;stroke-miterlimit:10;}
</style>
<ellipse class="st0" cx="20.1" cy="20.2" rx="17.9" ry="18.5"/>
<g>
	<defs>
		<rect id="SVGID_1_" x="0.1" y="0" width="40" height="40"/>
	</defs>
	<clipPath id="SVGID_2_">
		<use xlink:href="#SVGID_1_"  style="overflow:visible;"/>
	</clipPath>
	<g class="st1">
		<path class="st2" d="M20.1,39.2c10.6,0,19.2-8.6,19.2-19.2c0-10.6-8.6-19.2-19.2-19.2C9.5,0.8,0.9,9.4,0.9,20
			C0.9,30.6,9.5,39.2,20.1,39.2z"/>
		<path d="M24,28.4c-0.1-1.3-0.1-2.2-0.1-3.4c0.6-0.3,1.6-2.3,1.8-3.9c0.5,0,1.2-0.5,1.4-2.3c0.1-0.9-0.3-1.5-0.6-1.7
			c0.7-2.2,2.3-9.2-2.9-9.9c-0.5-0.9-1.9-1.4-3.7-1.4c-7.1,0.1-7.9,5.3-6.4,11.3c-0.3,0.2-0.7,0.7-0.6,1.7c0.2,1.8,0.9,2.2,1.4,2.3
			c0.2,1.6,1.3,3.6,1.8,3.9c0,1.2,0,2.1-0.1,3.4c-1,2.7-6.2,2.9-9.2,5.5c3.1,3.1,8.2,5.4,13.5,5.4s11.6-4.2,12.7-5.4
			C30.2,31.3,25,31.1,24,28.4z"/>
	</g>
</g>
</svg>
